<svg width="24" height="24" viewBox="0 0 24 24" xmlns="http://www.w3.org/2000/svg"><path d="M12 3c2.446 0 2.75.01 3.71.055.96.044 1.614.195 2.187.417.6.226 1.145.58 1.594 1.04.46.448.82.992 1.04 1.593.22.572.38 1.226.42 2.184.047.96.058 1.26.058 3.71s-.01 2.75-.054 3.71c-.044.95-.196 1.61-.417 2.18-.227.6-.58 1.14-1.04 1.59-.45.458-.992.813-1.592 1.04-.572.222-1.227.373-2.185.417-.96.044-1.266.055-3.71.055s-2.75-.01-3.71-.055c-.96-.042-1.613-.193-2.186-.415-.6-.227-1.146-.58-1.595-1.04-.46-.45-.814-.993-1.04-1.593-.22-.573-.373-1.227-.417-2.185C3.01 14.75 3 14.445 3 12s.012-2.75.055-3.71.195-1.613.417-2.186c.227-.6.58-1.144 1.04-1.593.45-.45.993-.81 1.594-1.03.572-.222 1.226-.373 2.184-.417C9.25 3.01 9.557 3 12 3zm4.805 2.1c-.386 0-.742.207-.935.54-.193.335-.193.747 0 1.08.193.335.55.54.935.54.597 0 1.08-.483 1.08-1.08 0-.596-.483-1.08-1.08-1.08zM12 7.38c-2.552 0-4.62 2.07-4.62 4.623 0 2.554 2.07 4.623 4.622 4.622 2.553 0 4.622-2.07 4.62-4.623 0-2.553-2.07-4.622-4.622-4.622zM12 9c1.087-.02 2.1.546 2.648 1.483.55.937.55 2.097 0 3.034-.55.937-1.56 1.504-2.647 1.483-1.63-.032-2.94-1.366-2.94-3S10.37 9.032 12 9z" fill="currentColor"/></svg>